<svg width="998" height="141" viewBox="0 0 998 141" fill="none" xmlns="http://www.w3.org/2000/svg">
<path d="M34.4342 7.648L19.2342 48.64H17.9862L4.99424 5.056L0.0342414 3.648V2.656H17.3782V3.648L11.6182 4.992L21.9222 40.704H20.2902L34.2742 2.016H35.8422L50.6582 40.896L49.1862 41.088L58.5622 5.184L52.5462 3.648V2.656H65.6662V3.648L60.8022 5.28L48.6742 48.64H47.4262L32.0342 9.248L34.4342 7.648ZM77.9927 15.392C80.2114 15.392 82.1421 15.8613 83.7847 16.8C85.4274 17.7173 86.7287 19.0827 87.6887 20.896C88.6701 22.688 89.2567 24.896 89.4487 27.52H68.4887L68.5207 25.632L85.9927 25.504L83.5607 26.784C83.3474 24.608 82.9741 22.8053 82.4407 21.376C81.9074 19.9467 81.2034 18.88 80.3287 18.176C79.4541 17.472 78.3767 17.12 77.0967 17.12C75.4114 17.12 73.9501 17.6107 72.7127 18.592C71.4967 19.552 70.5581 20.9707 69.8967 22.848C69.2567 24.704 68.9367 26.9547 68.9367 29.6C68.9367 32.992 69.3954 35.7653 70.3127 37.92C71.2514 40.0747 72.5954 41.6533 74.3447 42.656C76.0941 43.6587 78.2167 44.16 80.7127 44.16C81.8434 44.16 82.9421 44.0107 84.0087 43.712C85.0967 43.4133 86.1207 42.9653 87.0807 42.368C88.0407 41.7493 88.8727 40.9813 89.5767 40.064L90.1207 40.512C88.8407 42.496 87.5501 44.0853 86.2487 45.28C84.9474 46.4747 83.5821 47.3387 82.1527 47.872C80.7234 48.384 79.1661 48.64 77.4807 48.64C74.7501 48.64 72.2861 48.0213 70.0887 46.784C67.9127 45.5467 66.1954 43.7333 64.9367 41.344C63.6781 38.9333 63.0487 36.0107 63.0487 32.576C63.0487 29.4613 63.6354 26.6027 64.8087 24C65.9821 21.3973 67.6887 19.3173 69.9287 17.76C72.1687 16.1813 74.8567 15.392 77.9927 15.392ZM91.9027 17.504C93.9294 16.4587 95.3694 15.3813 96.2227 14.272C97.0761 13.1627 97.5027 11.9573 97.5027 10.656C97.5027 9.90933 97.2787 9.29067 96.8307 8.8C96.4041 8.288 95.8921 7.872 95.2947 7.552C94.7187 7.232 94.2067 6.96533 93.7587 6.752C93.3107 6.51733 93.0867 6.31466 93.0867 6.144C93.0867 4.992 93.4601 4.04266 94.2067 3.296C94.9747 2.528 95.9667 2.144 97.1827 2.144C98.5267 2.144 99.6254 2.60266 100.479 3.52C101.353 4.416 101.791 5.71733 101.791 7.424C101.791 8.87467 101.46 10.272 100.799 11.616C100.137 12.9387 99.1347 14.1867 97.7907 15.36C96.4467 16.5333 94.7187 17.6213 92.6067 18.624L91.9027 17.504ZM122.817 15.488C123.777 15.488 124.523 15.7547 125.057 16.288C125.611 16.8213 125.889 17.5467 125.889 18.464C125.889 19.5733 125.547 20.4693 124.865 21.152C124.182 21.8347 123.307 22.176 122.241 22.176C121.771 22.176 121.291 22.112 120.801 21.984C120.331 21.856 119.83 21.728 119.297 21.6C118.763 21.472 118.177 21.408 117.537 21.408C116.918 21.408 116.331 21.5147 115.777 21.728C115.222 21.9413 114.667 22.2293 114.113 22.592C113.579 22.9547 113.035 23.392 112.481 23.904L112.385 22.528C113.942 20.9493 115.265 19.6907 116.353 18.752C117.441 17.8133 118.369 17.1093 119.137 16.64C119.905 16.1707 120.577 15.8613 121.153 15.712C121.729 15.5627 122.283 15.488 122.817 15.488ZM112.897 21.28V46.048L118.081 47.104V48H102.593V47.104L107.201 46.048V21.472C106.923 21.28 106.571 21.056 106.145 20.8C105.739 20.544 105.238 20.2453 104.641 19.904C104.065 19.5413 103.382 19.136 102.593 18.688V18.08L112.641 15.104H112.865L112.897 21.28ZM141.215 15.392C143.434 15.392 145.365 15.8613 147.007 16.8C148.65 17.7173 149.951 19.0827 150.911 20.896C151.893 22.688 152.479 24.896 152.671 27.52H131.711L131.743 25.632L149.215 25.504L146.783 26.784C146.57 24.608 146.197 22.8053 145.663 21.376C145.13 19.9467 144.426 18.88 143.551 18.176C142.677 17.472 141.599 17.12 140.319 17.12C138.634 17.12 137.173 17.6107 135.935 18.592C134.719 19.552 133.781 20.9707 133.119 22.848C132.479 24.704 132.159 26.9547 132.159 29.6C132.159 32.992 132.618 35.7653 133.535 37.92C134.474 40.0747 135.818 41.6533 137.567 42.656C139.317 43.6587 141.439 44.16 143.935 44.16C145.066 44.16 146.165 44.0107 147.231 43.712C148.319 43.4133 149.343 42.9653 150.303 42.368C151.263 41.7493 152.095 40.9813 152.799 40.064L153.343 40.512C152.063 42.496 150.773 44.0853 149.471 45.28C148.17 46.4747 146.805 47.3387 145.375 47.872C143.946 48.384 142.389 48.64 140.703 48.64C137.973 48.64 135.509 48.0213 133.311 46.784C131.135 45.5467 129.418 43.7333 128.159 41.344C126.901 38.9333 126.271 36.0107 126.271 32.576C126.271 29.4613 126.858 26.6027 128.031 24C129.205 21.3973 130.911 19.3173 133.151 17.76C135.391 16.1813 138.079 15.392 141.215 15.392ZM171.252 17.856L171.572 16.032H190.292L189.94 17.856H171.252ZM176.948 40.64C175.945 44.7573 174.825 48.256 173.588 51.136C172.35 54.016 171.028 56.3413 169.62 58.112C168.233 59.8827 166.804 61.1733 165.332 61.984C163.838 62.7947 162.366 63.2 160.916 63.2C159.38 63.2 158.196 62.8373 157.364 62.112C156.532 61.3867 156.116 60.448 156.116 59.296C156.116 58.3787 156.393 57.5787 156.948 56.896C157.502 56.2347 158.26 55.904 159.22 55.904C160.009 55.904 160.553 56.128 160.852 56.576C161.15 57.024 161.225 57.7813 161.076 58.848C160.926 59.936 160.958 60.64 161.172 60.96C161.385 61.3013 161.769 61.472 162.324 61.472C163.092 61.472 163.86 61.2267 164.628 60.736C165.374 60.2453 166.132 59.4027 166.9 58.208C167.668 57.0133 168.414 55.3813 169.14 53.312C169.865 51.2427 170.58 48.6293 171.284 45.472L177.652 16.992C178.462 13.3653 179.721 10.368 181.428 8C183.156 5.61066 185.15 3.81866 187.412 2.624C189.694 1.42933 192.041 0.831997 194.452 0.831997C195.774 0.831997 196.852 0.991997 197.684 1.312C198.516 1.632 199.124 2.08 199.508 2.656C199.913 3.21067 200.116 3.86133 200.116 4.608C200.116 5.824 199.721 6.80533 198.932 7.552C198.142 8.27733 197.15 8.64 195.956 8.64C195.188 8.64 194.676 8.352 194.42 7.776C194.164 7.2 194.089 6.368 194.196 5.28C194.302 4.192 194.206 3.424 193.908 2.976C193.63 2.50667 193.14 2.272 192.436 2.272C191.262 2.272 190.11 2.688 188.98 3.52C187.849 4.33066 186.793 5.632 185.812 7.424C184.852 9.19467 184.02 11.52 183.316 14.4L176.948 40.64ZM200.616 46.08L204.392 34.24H204.808C202.91 37.12 201.214 39.488 199.72 41.344C198.227 43.2 196.883 44.6613 195.688 45.728C194.515 46.7947 193.438 47.552 192.456 48C191.475 48.4267 190.547 48.64 189.672 48.64C188.542 48.64 187.539 48.416 186.664 47.968C185.79 47.4987 185.096 46.816 184.584 45.92C184.094 45.024 183.848 43.8933 183.848 42.528C183.848 40.352 184.232 38.0373 185 35.584C185.79 33.1307 186.856 30.7307 188.2 28.384C189.566 26.016 191.102 23.872 192.808 21.952C194.536 20.0107 196.35 18.464 198.248 17.312C200.147 16.16 202.035 15.584 203.912 15.584C205.128 15.584 206.248 15.9253 207.272 16.608C208.296 17.2693 209.171 18.2613 209.896 19.584L209.48 20.544C208.968 19.4987 208.36 18.7627 207.656 18.336C206.974 17.9093 206.174 17.696 205.256 17.696C203.848 17.696 202.408 18.2187 200.936 19.264C199.464 20.3093 198.035 21.696 196.648 23.424C195.283 25.1307 194.056 27.0187 192.968 29.088C191.88 31.1573 191.006 33.2267 190.344 35.296C189.704 37.344 189.384 39.232 189.384 40.96C189.384 42.24 189.662 43.1467 190.216 43.68C190.792 44.2133 191.528 44.48 192.424 44.48C193.064 44.48 193.8 44.288 194.632 43.904C195.464 43.4987 196.382 42.8693 197.384 42.016C198.408 41.1413 199.507 40.0107 200.68 38.624C201.854 37.216 203.08 35.52 204.36 33.536L209.416 18.816L210.952 16.032H215.464L205.672 45.28L205.032 44.256C205.63 44.448 206.398 44.3733 207.336 44.032C208.296 43.6907 209.406 43.0293 210.664 42.048C211.923 41.0453 213.31 39.6693 214.824 37.92L215.208 38.272C212.648 42.1547 210.355 44.8533 208.328 46.368C206.302 47.8827 204.531 48.64 203.016 48.64C201.992 48.64 201.267 48.416 200.84 47.968C200.414 47.4987 200.339 46.8693 200.616 46.08ZM226.424 20.96C226.53 20.6613 226.541 20.384 226.456 20.128C226.392 19.872 226.189 19.744 225.848 19.744C225.357 19.744 224.717 19.9893 223.928 20.48C223.138 20.9707 222.21 21.856 221.144 23.136C220.098 24.416 218.904 26.2507 217.56 28.64L217.08 28.448C218.466 25.1413 219.789 22.5387 221.048 20.64C222.328 18.7413 223.608 17.3973 224.888 16.608C226.189 15.8187 227.544 15.424 228.952 15.424C229.464 15.424 229.922 15.456 230.328 15.52C230.754 15.5627 231.16 15.6373 231.544 15.744C231.928 15.8293 232.322 15.9573 232.728 16.128L228.312 30.208H228.152C230.157 26.1973 231.917 23.136 233.432 21.024C234.946 18.8907 236.333 17.4187 237.592 16.608C238.872 15.7973 240.109 15.392 241.304 15.392C242.626 15.392 243.597 15.7227 244.216 16.384C244.856 17.024 245.176 17.8347 245.176 18.816C245.176 19.7333 244.962 20.544 244.536 21.248C244.13 21.9307 243.597 22.464 242.936 22.848C242.274 23.232 241.549 23.424 240.76 23.424C240.013 23.424 239.49 23.264 239.192 22.944C238.893 22.6027 238.754 22.08 238.776 21.376C238.84 20.672 238.797 20.2133 238.648 20C238.52 19.7653 238.306 19.648 238.008 19.648C237.368 19.648 236.664 19.9253 235.896 20.48C235.128 21.0347 234.317 21.8347 233.464 22.88C232.61 23.904 231.757 25.1307 230.904 26.56C230.05 27.968 229.229 29.536 228.44 31.264C227.65 32.9707 226.925 34.8053 226.264 36.768L222.52 48H217.464L226.424 20.96ZM279.738 45.28L279.13 44.288C279.792 44.416 280.613 44.32 281.594 44C282.597 43.68 283.792 43.04 285.178 42.08C286.565 41.0987 288.122 39.712 289.85 37.92L290.266 38.272C288.453 40.768 286.768 42.7733 285.21 44.288C283.653 45.8027 282.224 46.912 280.922 47.616C279.621 48.2987 278.437 48.64 277.37 48.64C275.984 48.64 275.045 48.384 274.554 47.872C274.085 47.3387 274.117 46.432 274.65 45.152L282.394 26.176C282.928 24.8747 283.29 23.936 283.482 23.36C283.696 22.7627 283.802 22.272 283.802 21.888C283.802 21.2267 283.568 20.7253 283.098 20.384C282.65 20.0213 281.925 19.84 280.922 19.84C279.749 19.84 278.544 20.2453 277.306 21.056C276.09 21.8667 274.917 22.912 273.786 24.192C272.656 25.4507 271.653 26.8053 270.778 28.256C269.925 29.6853 269.285 31.0187 268.858 32.256L263.418 48H258.298L266.49 24.384C266.64 24 266.757 23.648 266.842 23.328C266.928 23.008 266.992 22.7093 267.034 22.432C267.098 22.1333 267.13 21.8773 267.13 21.664C267.13 21.0027 266.917 20.5333 266.49 20.256C266.064 19.9787 265.445 19.84 264.634 19.84C263.674 19.84 262.618 20.2027 261.466 20.928C260.336 21.6533 259.216 22.624 258.106 23.84C256.997 25.056 255.984 26.4107 255.066 27.904C254.17 29.3973 253.477 30.912 252.986 32.448L247.802 48H242.746L251.706 20.96C251.813 20.6613 251.824 20.384 251.738 20.128C251.674 19.872 251.472 19.744 251.13 19.744C250.64 19.744 250 19.9893 249.21 20.48C248.421 20.9707 247.493 21.856 246.426 23.136C245.381 24.416 244.186 26.2507 242.842 28.64L242.362 28.448C243.749 25.1413 245.072 22.5387 246.33 20.64C247.61 18.7413 248.89 17.3973 250.17 16.608C251.472 15.8187 252.826 15.424 254.234 15.424C254.746 15.424 255.205 15.456 255.61 15.52C256.037 15.5627 256.442 15.6373 256.826 15.744C257.21 15.8293 257.605 15.9573 258.01 16.128L254.106 28.416H253.786C255.322 25.856 256.72 23.7333 257.978 22.048C259.258 20.3627 260.442 19.04 261.53 18.08C262.618 17.0987 263.664 16.4053 264.666 16C265.669 15.5947 266.682 15.392 267.706 15.392C269.349 15.392 270.586 15.776 271.418 16.544C272.25 17.2907 272.666 18.3147 272.666 19.616C272.666 20.1067 272.602 20.64 272.474 21.216C272.368 21.7707 272.208 22.3787 271.994 23.04L269.946 28.96H269.434C270.97 26.4213 272.389 24.2773 273.69 22.528C275.013 20.7787 276.25 19.392 277.402 18.368C278.576 17.3227 279.696 16.5653 280.762 16.096C281.85 15.6267 282.928 15.392 283.994 15.392C285.914 15.392 287.258 15.8187 288.026 16.672C288.816 17.5253 289.21 18.5707 289.21 19.808C289.21 20.5333 289.093 21.344 288.858 22.24C288.624 23.1147 288.133 24.4693 287.386 26.304L279.738 45.28ZM308.59 16.8C307.182 16.8 305.87 17.312 304.654 18.336C303.438 19.3387 302.35 20.6613 301.39 22.304C300.43 23.9467 299.598 25.7387 298.894 27.68C298.211 29.6 297.688 31.4987 297.326 33.376C296.963 35.2533 296.782 36.9067 296.782 38.336C296.782 40.5973 297.187 42.208 297.998 43.168C298.83 44.1067 300.014 44.576 301.55 44.576C302.702 44.576 303.854 44.32 305.006 43.808C306.158 43.2747 307.32 42.3787 308.494 41.12C309.667 39.84 310.84 38.0907 312.014 35.872L312.59 35.936C311.246 39.2427 309.88 41.824 308.494 43.68C307.107 45.536 305.688 46.8267 304.238 47.552C302.787 48.2773 301.272 48.64 299.694 48.64C297.987 48.64 296.515 48.32 295.278 47.68C294.04 47.0187 293.091 46.0587 292.43 44.8C291.79 43.5413 291.47 41.9947 291.47 40.16C291.47 37.8773 291.779 35.5733 292.398 33.248C293.016 30.9013 293.88 28.672 294.99 26.56C296.12 24.4267 297.443 22.528 298.958 20.864C300.494 19.1787 302.168 17.8453 303.982 16.864C305.795 15.8827 307.704 15.392 309.71 15.392C311.203 15.392 312.408 15.6373 313.326 16.128C314.243 16.6187 314.915 17.28 315.342 18.112C315.79 18.944 316.014 19.872 316.014 20.896C316.014 21.8133 315.875 22.752 315.598 23.712C315.32 24.672 314.862 25.5893 314.222 26.464C313.518 26.8693 312.515 27.3387 311.214 27.872C309.912 28.4053 308.44 28.96 306.798 29.536C305.176 30.112 303.448 30.688 301.614 31.264C299.8 31.8187 297.998 32.3307 296.206 32.8L296.398 31.616C298.83 30.848 300.91 30.112 302.638 29.408C304.387 28.6827 305.838 27.968 306.99 27.264C308.142 26.56 309.048 25.8453 309.71 25.12C310.371 24.3733 310.84 23.6053 311.118 22.816C311.395 22.0053 311.534 21.1733 311.534 20.32C311.534 19.616 311.416 18.9973 311.182 18.464C310.947 17.9307 310.606 17.5253 310.158 17.248C309.731 16.9493 309.208 16.8 308.59 16.8ZM325.896 20.96C326.003 20.6613 326.014 20.384 325.928 20.128C325.864 19.872 325.662 19.744 325.32 19.744C324.83 19.744 324.19 19.9893 323.4 20.48C322.611 20.9707 321.683 21.856 320.616 23.136C319.571 24.416 318.376 26.2507 317.032 28.64L316.552 28.448C317.939 25.1413 319.262 22.5387 320.52 20.64C321.8 18.7413 323.08 17.3973 324.36 16.608C325.662 15.8187 327.016 15.424 328.424 15.424C328.936 15.424 329.395 15.456 329.8 15.52C330.227 15.5627 330.632 15.6373 331.016 15.744C331.4 15.8293 331.795 15.9573 332.2 16.128L327.784 30.208H327.624C329.63 26.1973 331.39 23.136 332.904 21.024C334.419 18.8907 335.806 17.4187 337.064 16.608C338.344 15.7973 339.582 15.392 340.776 15.392C342.099 15.392 343.07 15.7227 343.688 16.384C344.328 17.024 344.648 17.8347 344.648 18.816C344.648 19.7333 344.435 20.544 344.008 21.248C343.603 21.9307 343.07 22.464 342.408 22.848C341.747 23.232 341.022 23.424 340.232 23.424C339.486 23.424 338.963 23.264 338.664 22.944C338.366 22.6027 338.227 22.08 338.248 21.376C338.312 20.672 338.27 20.2133 338.12 20C337.992 19.7653 337.779 19.648 337.48 19.648C336.84 19.648 336.136 19.9253 335.368 20.48C334.6 21.0347 333.79 21.8347 332.936 22.88C332.083 23.904 331.23 25.1307 330.376 26.56C329.523 27.968 328.702 29.536 327.912 31.264C327.123 32.9707 326.398 34.8053 325.736 36.768L321.992 48H316.936L325.896 20.96ZM343.947 41.024C344.053 42.2613 344.192 43.264 344.363 44.032C344.555 44.7787 344.811 45.376 345.131 45.824C345.493 46.272 345.867 46.5707 346.251 46.72C346.656 46.848 347.104 46.912 347.595 46.912C348.853 46.912 349.931 46.7093 350.827 46.304C351.744 45.8987 352.448 45.3013 352.939 44.512C353.429 43.7227 353.675 42.7627 353.675 41.632C353.675 40.9707 353.547 40.2667 353.291 39.52C353.035 38.7733 352.619 37.9413 352.043 37.024C351.488 36.0853 350.72 34.9973 349.739 33.76C348.779 32.5227 348.021 31.4027 347.467 30.4C346.933 29.3973 346.56 28.4693 346.347 27.616C346.133 26.7627 346.027 25.9307 346.027 25.12C346.027 23.328 346.485 21.7067 347.403 20.256C348.341 18.784 349.632 17.6107 351.275 16.736C352.939 15.84 354.848 15.392 357.003 15.392C358.517 15.392 359.723 15.5733 360.619 15.936C361.515 16.2773 362.155 16.7573 362.539 17.376C362.923 17.9733 363.115 18.6773 363.115 19.488C363.115 20.1067 362.965 20.6507 362.667 21.12C362.389 21.568 361.92 21.9093 361.259 22.144C360.597 22.3787 359.701 22.496 358.571 22.496C358.613 21.216 358.56 20.224 358.411 19.52C358.283 18.7947 358.069 18.2507 357.771 17.888C357.472 17.504 357.12 17.2373 356.715 17.088C356.309 16.9387 355.797 16.864 355.179 16.864C353.536 16.864 352.213 17.28 351.211 18.112C350.229 18.944 349.739 20.16 349.739 21.76C349.739 22.3573 349.845 22.9973 350.059 23.68C350.272 24.3627 350.635 25.1627 351.147 26.08C351.68 26.976 352.427 28.0747 353.387 29.376C354.347 30.6773 355.093 31.84 355.627 32.864C356.181 33.8667 356.565 34.7947 356.779 35.648C357.013 36.48 357.131 37.3013 357.131 38.112C357.131 40.16 356.619 41.9733 355.595 43.552C354.592 45.1307 353.205 46.3787 351.435 47.296C349.685 48.192 347.68 48.64 345.419 48.64C343.861 48.64 342.613 48.4587 341.675 48.096C340.757 47.7547 340.096 47.264 339.691 46.624C339.264 45.984 339.051 45.2587 339.051 44.448C339.051 43.6587 339.221 43.0187 339.563 42.528C339.904 42.016 340.437 41.6427 341.163 41.408C341.888 41.152 342.816 41.024 343.947 41.024ZM362.782 57.504C364.488 56.1387 365.768 54.816 366.622 53.536C367.496 52.256 367.934 50.9013 367.934 49.472C367.934 48.704 367.699 48.064 367.23 47.552C366.782 47.0187 366.259 46.5707 365.662 46.208C365.064 45.8453 364.531 45.5253 364.062 45.248C363.614 44.9493 363.39 44.6507 363.39 44.352C363.39 43.1147 363.784 42.1227 364.574 41.376C365.363 40.608 366.419 40.224 367.742 40.224C369.043 40.224 370.12 40.672 370.974 41.568C371.827 42.4427 372.254 43.712 372.254 45.376C372.254 46.464 372.094 47.5413 371.774 48.608C371.454 49.696 370.952 50.7733 370.27 51.84C369.608 52.928 368.734 54.016 367.646 55.104C366.558 56.2133 365.246 57.312 363.71 58.4L362.782 57.504ZM396.38 39.648C396.21 40.2027 396.082 40.736 395.996 41.248C395.932 41.76 395.9 42.24 395.9 42.688C395.9 43.968 396.199 45.0667 396.796 45.984C397.415 46.9013 398.375 47.36 399.676 47.36C400.892 47.36 402.162 46.8907 403.484 45.952C404.807 45.0133 406.087 43.744 407.324 42.144C408.562 40.544 409.682 38.7307 410.684 36.704C411.708 34.6773 412.508 32.5547 413.084 30.336C413.682 28.096 413.98 25.888 413.98 23.712C413.98 22.112 413.692 20.96 413.116 20.256C412.562 19.5307 411.772 19.168 410.748 19.168C409.703 19.168 408.668 19.456 407.644 20.032C406.62 20.5867 405.628 21.3333 404.668 22.272C403.708 23.2107 402.812 24.2667 401.98 25.44C401.17 26.6133 400.455 27.8293 399.836 29.088C399.218 30.3253 398.738 31.52 398.396 32.672L396.38 39.648ZM392.54 44.384L394.844 45.184L390.3 60.576L395.58 61.632L395.324 62.56H380.38L380.636 61.632L385.244 60.576L397.052 20.96C397.18 20.576 397.202 20.2773 397.116 20.064C397.031 19.8507 396.839 19.744 396.54 19.744C396.05 19.744 395.41 19.9893 394.62 20.48C393.831 20.9707 392.903 21.856 391.836 23.136C390.77 24.416 389.564 26.2507 388.22 28.64L387.74 28.448C389.127 25.1413 390.45 22.5387 391.708 20.64C392.988 18.7413 394.268 17.3973 395.548 16.608C396.828 15.7973 398.183 15.392 399.612 15.392C400.359 15.392 401.01 15.456 401.564 15.584C402.14 15.6907 402.738 15.872 403.356 16.128L399.42 29.088L399.004 28.96C400.882 25.44 402.652 22.6987 404.316 20.736C405.98 18.7733 407.548 17.3973 409.02 16.608C410.492 15.7973 411.89 15.392 413.212 15.392C415.346 15.392 416.946 16.0107 418.012 17.248C419.1 18.4853 419.644 20.2667 419.644 22.592C419.644 25.152 419.239 27.68 418.428 30.176C417.639 32.672 416.551 35.0293 415.164 37.248C413.799 39.4667 412.252 41.4293 410.524 43.136C408.796 44.8427 407.004 46.1867 405.148 47.168C403.292 48.1493 401.468 48.64 399.676 48.64C397.714 48.64 396.146 48.2453 394.972 47.456C393.82 46.6453 393.01 45.6213 392.54 44.384ZM437.314 46.112L440.386 36.224H440.674C439.159 38.6347 437.794 40.64 436.578 42.24C435.383 43.84 434.263 45.1093 433.218 46.048C432.194 46.9867 431.202 47.648 430.242 48.032C429.282 48.4373 428.3 48.64 427.298 48.64C425.42 48.64 424.098 48.2027 423.33 47.328C422.562 46.4533 422.178 45.3653 422.178 44.064C422.178 43.424 422.252 42.7413 422.402 42.016C422.572 41.2907 422.796 40.5547 423.074 39.808L430.978 18.784L431.778 19.872C431.33 19.6587 430.647 19.6907 429.73 19.968C428.812 20.224 427.66 20.8533 426.274 21.856C424.887 22.8373 423.276 24.3413 421.442 26.368L421.058 26.048C422.85 23.5093 424.503 21.4613 426.018 19.904C427.532 18.3253 428.94 17.184 430.242 16.48C431.543 15.7547 432.748 15.392 433.858 15.392C435.052 15.392 435.884 15.648 436.354 16.16C436.823 16.672 436.823 17.5253 436.354 18.72L428.354 39.296C428.098 39.9147 427.906 40.4693 427.778 40.96C427.671 41.4507 427.618 41.8667 427.618 42.208C427.618 42.9333 427.852 43.456 428.322 43.776C428.812 44.0747 429.527 44.224 430.466 44.224C431.404 44.224 432.407 43.872 433.474 43.168C434.562 42.464 435.628 41.5573 436.674 40.448C437.719 39.3173 438.636 38.112 439.426 36.832C440.236 35.552 440.834 34.3467 441.218 33.216L446.946 16.032H452.034L442.274 45.248L441.794 44.256C442.391 44.448 443.159 44.3733 444.098 44.032C445.058 43.6907 446.167 43.0293 447.426 42.048C448.706 41.0453 450.092 39.6693 451.586 37.92L451.97 38.272C449.41 42.176 447.116 44.8853 445.09 46.4C443.084 47.8933 441.314 48.64 439.778 48.64C438.711 48.64 437.975 48.4267 437.57 48C437.164 47.552 437.079 46.9227 437.314 46.112ZM462.841 20.96C462.948 20.6613 462.959 20.384 462.873 20.128C462.809 19.872 462.607 19.744 462.265 19.744C461.775 19.744 461.135 19.9893 460.345 20.48C459.556 20.9707 458.628 21.856 457.561 23.136C456.516 24.416 455.321 26.2507 453.977 28.64L453.497 28.448C454.884 25.1413 456.207 22.5387 457.465 20.64C458.745 18.7413 460.025 17.3973 461.305 16.608C462.607 15.8187 463.961 15.424 465.369 15.424C465.881 15.424 466.34 15.456 466.745 15.52C467.172 15.5627 467.577 15.6373 467.961 15.744C468.345 15.8293 468.74 15.9573 469.145 16.128L464.729 30.208H464.569C466.575 26.1973 468.335 23.136 469.849 21.024C471.364 18.8907 472.751 17.4187 474.009 16.608C475.289 15.7973 476.527 15.392 477.721 15.392C479.044 15.392 480.015 15.7227 480.633 16.384C481.273 17.024 481.593 17.8347 481.593 18.816C481.593 19.7333 481.38 20.544 480.953 21.248C480.548 21.9307 480.015 22.464 479.353 22.848C478.692 23.232 477.967 23.424 477.177 23.424C476.431 23.424 475.908 23.264 475.609 22.944C475.311 22.6027 475.172 22.08 475.193 21.376C475.257 20.672 475.215 20.2133 475.065 20C474.937 19.7653 474.724 19.648 474.425 19.648C473.785 19.648 473.081 19.9253 472.313 20.48C471.545 21.0347 470.735 21.8347 469.881 22.88C469.028 23.904 468.175 25.1307 467.321 26.56C466.468 27.968 465.647 29.536 464.857 31.264C464.068 32.9707 463.343 34.8053 462.681 36.768L458.937 48H453.881L462.841 20.96ZM505.884 21.696C505.884 24.512 505.478 27.2533 504.668 29.92C503.878 32.5653 502.812 35.0187 501.468 37.28C500.124 39.5413 498.63 41.5253 496.988 43.232C495.345 44.9387 493.66 46.272 491.932 47.232C490.204 48.1707 488.561 48.64 487.004 48.64C485.084 48.64 483.622 48.2027 482.62 47.328C481.638 46.432 481.148 45.0987 481.148 43.328C481.148 41.984 481.446 40.3733 482.044 38.496L487.612 20.96C487.697 20.6187 487.697 20.3307 487.612 20.096C487.548 19.8613 487.356 19.744 487.036 19.744C486.545 19.744 485.905 19.9893 485.116 20.48C484.326 20.9707 483.398 21.856 482.332 23.136C481.265 24.416 480.06 26.2507 478.716 28.64L478.268 28.448C479.313 25.9733 480.316 23.904 481.276 22.24C482.236 20.5547 483.196 19.2107 484.156 18.208C485.116 17.2053 486.086 16.4907 487.068 16.064C488.07 15.6373 489.116 15.424 490.204 15.424C490.694 15.424 491.132 15.456 491.516 15.52C491.921 15.5627 492.305 15.6373 492.668 15.744C493.052 15.8507 493.446 15.9893 493.852 16.16L487.132 37.696C486.812 38.7413 486.566 39.6693 486.396 40.48C486.246 41.2693 486.172 41.9413 486.172 42.496C486.172 43.5413 486.417 44.2773 486.908 44.704C487.398 45.1093 488.124 45.312 489.084 45.312C490.364 45.312 491.676 44.9493 493.02 44.224C494.364 43.4773 495.654 42.4747 496.892 41.216C498.15 39.9573 499.27 38.5387 500.252 36.96C501.233 35.3813 502.012 33.7387 502.588 32.032C503.164 30.304 503.452 28.6187 503.452 26.976C503.452 25.5253 503.206 24.4267 502.716 23.68C502.246 22.9333 501.692 22.3467 501.052 21.92C500.412 21.4933 499.857 21.056 499.388 20.608C498.918 20.16 498.684 19.5093 498.684 18.656C498.684 17.7173 498.961 16.9493 499.516 16.352C500.092 15.7333 500.892 15.424 501.916 15.424C503.153 15.424 504.124 15.9147 504.828 16.896C505.532 17.8773 505.884 19.4773 505.884 21.696ZM524.257 16.8C522.849 16.8 521.537 17.312 520.321 18.336C519.105 19.3387 518.017 20.6613 517.057 22.304C516.097 23.9467 515.265 25.7387 514.561 27.68C513.879 29.6 513.356 31.4987 512.993 33.376C512.631 35.2533 512.449 36.9067 512.449 38.336C512.449 40.5973 512.855 42.208 513.665 43.168C514.497 44.1067 515.681 44.576 517.217 44.576C518.369 44.576 519.521 44.32 520.673 43.808C521.825 43.2747 522.988 42.3787 524.161 41.12C525.335 39.84 526.508 38.0907 527.681 35.872L528.257 35.936C526.913 39.2427 525.548 41.824 524.161 43.68C522.775 45.536 521.356 46.8267 519.905 47.552C518.455 48.2773 516.94 48.64 515.361 48.64C513.655 48.64 512.183 48.32 510.945 47.68C509.708 47.0187 508.759 46.0587 508.097 44.8C507.457 43.5413 507.137 41.9947 507.137 40.16C507.137 37.8773 507.447 35.5733 508.065 33.248C508.684 30.9013 509.548 28.672 510.657 26.56C511.788 24.4267 513.111 22.528 514.625 20.864C516.161 19.1787 517.836 17.8453 519.649 16.864C521.463 15.8827 523.372 15.392 525.377 15.392C526.871 15.392 528.076 15.6373 528.993 16.128C529.911 16.6187 530.583 17.28 531.009 18.112C531.457 18.944 531.681 19.872 531.681 20.896C531.681 21.8133 531.543 22.752 531.265 23.712C530.988 24.672 530.529 25.5893 529.889 26.464C529.185 26.8693 528.183 27.3387 526.881 27.872C525.58 28.4053 524.108 28.96 522.465 29.536C520.844 30.112 519.116 30.688 517.281 31.264C515.468 31.8187 513.665 32.3307 511.873 32.8L512.065 31.616C514.497 30.848 516.577 30.112 518.305 29.408C520.055 28.6827 521.505 27.968 522.657 27.264C523.809 26.56 524.716 25.8453 525.377 25.12C526.039 24.3733 526.508 23.6053 526.785 22.816C527.063 22.0053 527.201 21.1733 527.201 20.32C527.201 19.616 527.084 18.9973 526.849 18.464C526.615 17.9307 526.273 17.5253 525.825 17.248C525.399 16.9493 524.876 16.8 524.257 16.8ZM532.476 29.248H531.9C532.54 26.56 533.212 24.3307 533.916 22.56C534.641 20.768 535.398 19.3493 536.188 18.304C536.977 17.2587 537.788 16.512 538.62 16.064C539.473 15.616 540.348 15.392 541.244 15.392C541.82 15.392 542.342 15.5413 542.812 15.84C543.302 16.1387 543.761 16.6507 544.188 17.376C544.636 18.08 545.052 19.072 545.436 20.352C545.841 21.6107 546.236 23.6053 546.62 26.336C547.025 29.0453 547.366 32.3733 547.644 36.32C547.942 40.2453 548.113 44.704 548.156 49.696L543.452 55.008C543.302 50.656 543.121 46.8053 542.908 43.456C542.716 40.1067 542.513 37.2053 542.3 34.752C542.086 32.2987 541.862 30.2613 541.628 28.64C541.414 26.9973 541.201 25.7173 540.988 24.8C540.689 23.5627 540.39 22.6133 540.092 21.952C539.814 21.2907 539.537 20.8427 539.26 20.608C539.004 20.352 538.716 20.224 538.396 20.224C537.862 20.224 537.308 20.4587 536.732 20.928C536.177 21.3973 535.558 22.2827 534.876 23.584C534.193 24.8853 533.393 26.7733 532.476 29.248ZM545.564 51.424L546.332 50.464C548.145 48.0747 549.756 45.5573 551.164 42.912C552.572 40.2667 553.766 37.504 554.748 34.624C555.75 31.744 556.508 28.7573 557.02 25.664C557.532 22.5707 557.788 19.36 557.788 16.032C558.3 15.8827 558.748 15.7867 559.132 15.744C559.537 15.7013 559.953 15.68 560.38 15.68C561.062 15.68 561.553 15.808 561.852 16.064C562.15 16.2987 562.3 16.6507 562.3 17.12C562.3 18.1653 562.076 19.5947 561.628 21.408C561.201 23.2 560.593 25.2373 559.804 27.52C559.036 29.8027 558.108 32.192 557.02 34.688C555.932 37.1627 554.737 39.616 553.436 42.048C552.156 44.48 550.79 46.72 549.34 48.768C546.929 52.2027 544.614 54.976 542.396 57.088C540.177 59.2213 538.033 60.768 535.964 61.728C533.894 62.7093 531.889 63.2 529.948 63.2C528.177 63.2 526.897 62.8053 526.108 62.016C525.318 61.2267 524.924 60.224 524.924 59.008C524.924 57.8987 525.244 56.9493 525.884 56.16C526.502 55.392 527.345 55.008 528.412 55.008C529.372 55.008 529.99 55.2533 530.268 55.744C530.545 56.256 530.598 57.0667 530.428 58.176C530.257 59.2853 530.3 60.0213 530.556 60.384C530.812 60.768 531.26 60.96 531.9 60.96C533.116 60.96 534.481 60.5867 535.996 59.84C537.532 59.1147 539.121 58.0373 540.764 56.608C542.406 55.2 544.006 53.472 545.564 51.424ZM580.447 15.392C582.196 15.392 583.668 15.7653 584.863 16.512C586.057 17.2373 586.953 18.304 587.551 19.712C588.169 21.0987 588.479 22.7947 588.479 24.8C588.479 27.68 587.988 30.528 587.007 33.344C586.025 36.16 584.681 38.72 582.975 41.024C581.289 43.328 579.348 45.1733 577.151 46.56C574.953 47.9467 572.639 48.64 570.207 48.64C568.479 48.64 567.007 48.2773 565.791 47.552C564.596 46.8053 563.689 45.728 563.071 44.32C562.473 42.912 562.175 41.216 562.175 39.232C562.175 36.352 562.665 33.504 563.647 30.688C564.649 27.872 565.993 25.312 567.679 23.008C569.385 20.704 571.327 18.8587 573.503 17.472C575.7 16.0853 578.015 15.392 580.447 15.392ZM570.303 47.392C571.561 47.392 572.82 46.8907 574.079 45.888C575.359 44.8853 576.564 43.52 577.695 41.792C578.825 40.064 579.828 38.112 580.703 35.936C581.577 33.76 582.26 31.4987 582.751 29.152C583.263 26.784 583.519 24.4587 583.519 22.176C583.519 20.2987 583.273 18.912 582.783 18.016C582.292 17.0987 581.481 16.64 580.351 16.64C579.092 16.64 577.833 17.152 576.575 18.176C575.316 19.1787 574.121 20.544 572.991 22.272C571.86 23.9787 570.857 25.92 569.983 28.096C569.108 30.272 568.415 32.544 567.903 34.912C567.391 37.28 567.135 39.6053 567.135 41.888C567.135 43.744 567.38 45.1307 567.871 46.048C568.383 46.944 569.193 47.392 570.303 47.392ZM600.004 20.96C600.11 20.6613 600.121 20.384 600.036 20.128C599.972 19.872 599.769 19.744 599.428 19.744C598.937 19.744 598.297 19.9893 597.508 20.48C596.718 20.9707 595.79 21.856 594.724 23.136C593.678 24.416 592.484 26.2507 591.14 28.64L590.66 28.448C592.046 25.1413 593.369 22.5387 594.628 20.64C595.908 18.7413 597.188 17.3973 598.468 16.608C599.769 15.8187 601.124 15.424 602.532 15.424C603.044 15.424 603.502 15.456 603.908 15.52C604.334 15.5627 604.74 15.6373 605.124 15.744C605.508 15.8293 605.902 15.9573 606.308 16.128L601.892 30.208H601.732C603.737 26.1973 605.497 23.136 607.012 21.024C608.526 18.8907 609.913 17.4187 611.172 16.608C612.452 15.7973 613.689 15.392 614.884 15.392C616.206 15.392 617.177 15.7227 617.796 16.384C618.436 17.024 618.756 17.8347 618.756 18.816C618.756 19.7333 618.542 20.544 618.116 21.248C617.71 21.9307 617.177 22.464 616.516 22.848C615.854 23.232 615.129 23.424 614.34 23.424C613.593 23.424 613.07 23.264 612.772 22.944C612.473 22.6027 612.334 22.08 612.356 21.376C612.42 20.672 612.377 20.2133 612.228 20C612.1 19.7653 611.886 19.648 611.588 19.648C610.948 19.648 610.244 19.9253 609.476 20.48C608.708 21.0347 607.897 21.8347 607.044 22.88C606.19 23.904 605.337 25.1307 604.484 26.56C603.63 27.968 602.809 29.536 602.02 31.264C601.23 32.9707 600.505 34.8053 599.844 36.768L596.1 48H591.044L600.004 20.96ZM618.054 41.024C618.161 42.2613 618.3 43.264 618.47 44.032C618.662 44.7787 618.918 45.376 619.238 45.824C619.601 46.272 619.974 46.5707 620.358 46.72C620.764 46.848 621.212 46.912 621.702 46.912C622.961 46.912 624.038 46.7093 624.934 46.304C625.852 45.8987 626.556 45.3013 627.046 44.512C627.537 43.7227 627.782 42.7627 627.782 41.632C627.782 40.9707 627.654 40.2667 627.398 39.52C627.142 38.7733 626.726 37.9413 626.15 37.024C625.596 36.0853 624.828 34.9973 623.846 33.76C622.886 32.5227 622.129 31.4027 621.574 30.4C621.041 29.3973 620.668 28.4693 620.454 27.616C620.241 26.7627 620.134 25.9307 620.134 25.12C620.134 23.328 620.593 21.7067 621.51 20.256C622.449 18.784 623.74 17.6107 625.382 16.736C627.046 15.84 628.956 15.392 631.11 15.392C632.625 15.392 633.83 15.5733 634.726 15.936C635.622 16.2773 636.262 16.7573 636.646 17.376C637.03 17.9733 637.222 18.6773 637.222 19.488C637.222 20.1067 637.073 20.6507 636.774 21.12C636.497 21.568 636.028 21.9093 635.366 22.144C634.705 22.3787 633.809 22.496 632.678 22.496C632.721 21.216 632.668 20.224 632.518 19.52C632.39 18.7947 632.177 18.2507 631.878 17.888C631.58 17.504 631.228 17.2373 630.822 17.088C630.417 16.9387 629.905 16.864 629.286 16.864C627.644 16.864 626.321 17.28 625.318 18.112C624.337 18.944 623.846 20.16 623.846 21.76C623.846 22.3573 623.953 22.9973 624.166 23.68C624.38 24.3627 624.742 25.1627 625.254 26.08C625.788 26.976 626.534 28.0747 627.494 29.376C628.454 30.6773 629.201 31.84 629.734 32.864C630.289 33.8667 630.673 34.7947 630.886 35.648C631.121 36.48 631.238 37.3013 631.238 38.112C631.238 40.16 630.726 41.9733 629.702 43.552C628.7 45.1307 627.313 46.3787 625.542 47.296C623.793 48.192 621.788 48.64 619.526 48.64C617.969 48.64 616.721 48.4587 615.782 48.096C614.865 47.7547 614.204 47.264 613.798 46.624C613.372 45.984 613.158 45.2587 613.158 44.448C613.158 43.6587 613.329 43.0187 613.67 42.528C614.012 42.016 614.545 41.6427 615.27 41.408C615.996 41.152 616.924 41.024 618.054 41.024ZM636.889 57.504C638.596 56.1387 639.876 54.816 640.729 53.536C641.604 52.256 642.041 50.9013 642.041 49.472C642.041 48.704 641.807 48.064 641.337 47.552C640.889 47.0187 640.367 46.5707 639.769 46.208C639.172 45.8453 638.639 45.5253 638.169 45.248C637.721 44.9493 637.497 44.6507 637.497 44.352C637.497 43.1147 637.892 42.1227 638.681 41.376C639.471 40.608 640.527 40.224 641.849 40.224C643.151 40.224 644.228 40.672 645.081 41.568C645.935 42.4427 646.361 43.712 646.361 45.376C646.361 46.464 646.201 47.5413 645.881 48.608C645.561 49.696 645.06 50.7733 644.377 51.84C643.716 52.928 642.841 54.016 641.753 55.104C640.665 56.2133 639.353 57.312 637.817 58.4L636.889 57.504ZM682.104 27.264L682.456 28.736C679.533 29.632 677.154 30.4853 675.32 31.296C673.506 32.1067 672.109 32.928 671.128 33.76C670.168 34.5707 669.506 35.424 669.144 36.32C668.781 37.216 668.6 38.208 668.6 39.296C668.6 41.088 669.112 42.4427 670.136 43.36C671.181 44.256 672.45 44.704 673.944 44.704C675.138 44.704 676.184 44.4587 677.08 43.968C677.997 43.4773 678.712 42.7733 679.224 41.856C679.757 40.9387 680.024 39.84 680.024 38.56V24.352C680.024 22.24 679.501 20.64 678.456 19.552C677.432 18.4427 675.853 17.888 673.72 17.888C672.717 17.888 671.704 17.9733 670.68 18.144C669.677 18.3147 668.856 18.56 668.216 18.88L669.912 17.568C669.848 18.3147 669.741 19.0933 669.592 19.904C669.464 20.7147 669.304 21.4507 669.112 22.112C668.92 22.752 668.685 23.232 668.408 23.552C668.13 23.9147 667.704 24.192 667.128 24.384C666.573 24.5547 666.008 24.64 665.432 24.64C664.685 24.64 664.088 24.4907 663.64 24.192C663.192 23.872 662.968 23.4027 662.968 22.784C662.968 21.9093 663.373 21.0453 664.184 20.192C665.016 19.3173 666.082 18.528 667.384 17.824C668.706 17.0987 670.136 16.5227 671.672 16.096C673.208 15.6693 674.68 15.456 676.088 15.456C678.413 15.456 680.28 15.7973 681.688 16.48C683.096 17.1627 684.12 18.1333 684.76 19.392C685.4 20.6293 685.72 22.0907 685.72 23.776V42.112C685.72 42.7947 685.826 43.3493 686.04 43.776C686.274 44.2027 686.584 44.5227 686.968 44.736C687.373 44.928 687.842 45.024 688.376 45.024C689.058 45.024 689.741 44.9173 690.424 44.704C691.128 44.4693 691.842 44.096 692.568 43.584V44.544C691.096 46.272 689.773 47.392 688.6 47.904C687.426 48.3947 686.232 48.64 685.016 48.64C683.778 48.64 682.797 48.3627 682.072 47.808C681.346 47.2533 680.824 46.464 680.504 45.44C680.184 44.3947 680.002 43.1467 679.96 41.696L680.056 41.664C679.714 43.008 679.138 44.2027 678.328 45.248C677.517 46.2933 676.546 47.1253 675.416 47.744C674.285 48.3413 673.037 48.64 671.672 48.64C669.112 48.64 666.968 47.9573 665.24 46.592C663.533 45.2053 662.68 43.2 662.68 40.576C662.68 39.2107 662.914 37.9947 663.384 36.928C663.874 35.8613 664.792 34.848 666.136 33.888C667.501 32.928 669.464 31.9253 672.024 30.88C674.584 29.8133 677.944 28.608 682.104 27.264ZM702.364 21.28V46.048L707.004 47.104V48H692.06V47.104L696.668 46.048V21.472C696.327 21.2373 695.836 20.928 695.196 20.544C694.556 20.16 693.511 19.5413 692.06 18.688V18.08L702.012 15.104H702.236L702.364 21.28ZM712.412 47.104L717.052 46.048V26.272C717.052 24.8853 716.807 23.7227 716.316 22.784C715.826 21.8453 715.068 21.1413 714.044 20.672C713.02 20.1813 711.719 19.936 710.14 19.936C708.455 19.936 706.855 20.1813 705.34 20.672C703.826 21.1413 702.599 21.6533 701.66 22.208L701.148 21.472C702.727 20.2347 704.114 19.2213 705.308 18.432C706.503 17.6427 707.58 17.0347 708.54 16.608C709.5 16.16 710.418 15.8507 711.292 15.68C712.167 15.488 713.106 15.392 714.108 15.392C717.159 15.392 719.367 16.2347 720.732 17.92C722.098 19.584 722.78 22.2293 722.78 25.856V46.048L727.388 47.104V48H712.412V47.104ZM753.14 24.16C753.14 22.112 752.393 20.4267 750.9 19.104C749.406 17.7813 747.518 17.12 745.236 17.12C743.166 17.12 741.406 17.664 739.956 18.752C738.505 19.84 737.396 21.4293 736.628 23.52C735.881 25.6107 735.508 28.1707 735.508 31.2C735.508 34.144 735.881 36.5973 736.628 38.56C737.374 40.5013 738.484 41.9627 739.956 42.944C741.428 43.904 743.262 44.384 745.46 44.384C747.252 44.384 748.916 44.0853 750.452 43.488C751.988 42.8907 753.47 41.856 754.9 40.384L755.316 41.28C753.929 42.7093 752.67 43.904 751.54 44.864C750.409 45.8027 749.342 46.5493 748.34 47.104C747.358 47.6587 746.409 48.0533 745.492 48.288C744.596 48.5227 743.721 48.64 742.868 48.64C740.094 48.64 737.694 48.0107 735.668 46.752C733.662 45.4933 732.105 43.7333 730.996 41.472C729.908 39.2107 729.364 36.5867 729.364 33.6C729.364 30.72 729.78 28.16 730.612 25.92C731.465 23.6587 732.66 21.7493 734.196 20.192C735.732 18.6347 737.545 17.4507 739.636 16.64C741.726 15.808 744.009 15.392 746.484 15.392C747.7 15.392 748.926 15.488 750.164 15.68C751.401 15.8507 752.617 16.128 753.812 16.512C755.006 16.896 756.137 17.3867 757.204 17.984L753.14 19.008V6.24C752.884 6.112 752.468 5.90933 751.892 5.632C751.337 5.35467 750.718 5.056 750.036 4.736C749.353 4.416 748.702 4.128 748.084 3.872V3.296L759.092 0.831997H759.284L758.836 5.824V44.576C759.028 44.6827 759.326 44.832 759.732 45.024C760.158 45.1947 760.617 45.376 761.108 45.568C761.598 45.76 762.078 45.952 762.548 46.144C763.038 46.336 763.454 46.496 763.796 46.624V47.36L753.428 48.8H753.204L753.14 44.256V24.16ZM794.927 16.8C793.519 16.8 792.207 17.312 790.991 18.336C789.775 19.3387 788.687 20.6613 787.727 22.304C786.767 23.9467 785.935 25.7387 785.231 27.68C784.549 29.6 784.026 31.4987 783.663 33.376C783.301 35.2533 783.119 36.9067 783.119 38.336C783.119 40.5973 783.525 42.208 784.335 43.168C785.167 44.1067 786.351 44.576 787.887 44.576C789.039 44.576 790.191 44.32 791.343 43.808C792.495 43.2747 793.658 42.3787 794.831 41.12C796.005 39.84 797.178 38.0907 798.351 35.872L798.927 35.936C797.583 39.2427 796.218 41.824 794.831 43.68C793.445 45.536 792.026 46.8267 790.575 47.552C789.125 48.2773 787.61 48.64 786.031 48.64C784.325 48.64 782.853 48.32 781.615 47.68C780.378 47.0187 779.429 46.0587 778.767 44.8C778.127 43.5413 777.807 41.9947 777.807 40.16C777.807 37.8773 778.117 35.5733 778.735 33.248C779.354 30.9013 780.218 28.672 781.327 26.56C782.458 24.4267 783.781 22.528 785.295 20.864C786.831 19.1787 788.506 17.8453 790.319 16.864C792.133 15.8827 794.042 15.392 796.047 15.392C797.541 15.392 798.746 15.6373 799.663 16.128C800.581 16.6187 801.253 17.28 801.679 18.112C802.127 18.944 802.351 19.872 802.351 20.896C802.351 21.8133 802.213 22.752 801.935 23.712C801.658 24.672 801.199 25.5893 800.559 26.464C799.855 26.8693 798.853 27.3387 797.551 27.872C796.25 28.4053 794.778 28.96 793.135 29.536C791.514 30.112 789.786 30.688 787.951 31.264C786.138 31.8187 784.335 32.3307 782.543 32.8L782.735 31.616C785.167 30.848 787.247 30.112 788.975 29.408C790.725 28.6827 792.175 27.968 793.327 27.264C794.479 26.56 795.386 25.8453 796.047 25.12C796.709 24.3733 797.178 23.6053 797.455 22.816C797.733 22.0053 797.871 21.1733 797.871 20.32C797.871 19.616 797.754 18.9973 797.519 18.464C797.285 17.9307 796.943 17.5253 796.495 17.248C796.069 16.9493 795.546 16.8 794.927 16.8ZM817.834 46.08L821.61 34.24H822.026C820.127 37.12 818.431 39.488 816.938 41.344C815.444 43.2 814.1 44.6613 812.906 45.728C811.732 46.7947 810.655 47.552 809.674 48C808.692 48.4267 807.764 48.64 806.89 48.64C805.759 48.64 804.756 48.416 803.882 47.968C803.007 47.4987 802.314 46.816 801.802 45.92C801.311 45.024 801.066 43.8933 801.066 42.528C801.066 40.352 801.45 38.0373 802.218 35.584C803.007 33.1307 804.074 30.7307 805.418 28.384C806.783 26.016 808.319 23.872 810.026 21.952C811.754 20.0107 813.567 18.464 815.466 17.312C817.364 16.16 819.252 15.584 821.13 15.584C822.346 15.584 823.466 15.9253 824.49 16.608C825.514 17.2693 826.388 18.2613 827.114 19.584L826.698 20.544C826.186 19.4987 825.578 18.7627 824.874 18.336C824.191 17.9093 823.391 17.696 822.474 17.696C821.066 17.696 819.626 18.2187 818.154 19.264C816.682 20.3093 815.252 21.696 813.866 23.424C812.5 25.1307 811.274 27.0187 810.186 29.088C809.098 31.1573 808.223 33.2267 807.562 35.296C806.922 37.344 806.602 39.232 806.602 40.96C806.602 42.24 806.879 43.1467 807.434 43.68C808.01 44.2133 808.746 44.48 809.642 44.48C810.282 44.48 811.018 44.288 811.85 43.904C812.682 43.4987 813.599 42.8693 814.602 42.016C815.626 41.1413 816.724 40.0107 817.898 38.624C819.071 37.216 820.298 35.52 821.578 33.536L826.634 18.816L828.17 16.032H832.682L822.89 45.28L822.25 44.256C822.847 44.448 823.615 44.3733 824.554 44.032C825.514 43.6907 826.623 43.0293 827.882 42.048C829.14 41.0453 830.527 39.6693 832.042 37.92L832.426 38.272C829.866 42.1547 827.572 44.8533 825.546 46.368C823.519 47.8827 821.748 48.64 820.234 48.64C819.21 48.64 818.484 48.416 818.058 47.968C817.631 47.4987 817.556 46.8693 817.834 46.08ZM836.795 17.856L837.307 16.032H855.035L854.619 17.856H836.795ZM840.603 40.608C840.453 41.0773 840.336 41.472 840.251 41.792C840.187 42.112 840.133 42.3787 840.091 42.592C840.069 42.8053 840.059 42.9973 840.059 43.168C840.059 43.5733 840.165 43.8613 840.379 44.032C840.613 44.2027 840.944 44.288 841.371 44.288C841.883 44.288 842.533 44.1067 843.323 43.744C844.133 43.36 845.115 42.6667 846.267 41.664C847.419 40.64 848.773 39.168 850.331 37.248L850.747 37.568C849.232 39.872 847.845 41.7493 846.587 43.2C845.349 44.6507 844.208 45.7707 843.163 46.56C842.117 47.3493 841.157 47.8933 840.283 48.192C839.429 48.4907 838.651 48.64 837.947 48.64C837.008 48.64 836.219 48.3627 835.579 47.808C834.96 47.2533 834.651 46.3253 834.651 45.024C834.651 44.576 834.704 43.9787 834.811 43.232C834.939 42.4853 835.248 41.3227 835.739 39.744L845.595 8.512H850.747L840.603 40.608ZM869.212 16.8C867.804 16.8 866.492 17.312 865.276 18.336C864.06 19.3387 862.972 20.6613 862.012 22.304C861.052 23.9467 860.22 25.7387 859.516 27.68C858.834 29.6 858.311 31.4987 857.948 33.376C857.586 35.2533 857.404 36.9067 857.404 38.336C857.404 40.5973 857.81 42.208 858.62 43.168C859.452 44.1067 860.636 44.576 862.172 44.576C863.324 44.576 864.476 44.32 865.628 43.808C866.78 43.2747 867.943 42.3787 869.116 41.12C870.29 39.84 871.463 38.0907 872.636 35.872L873.212 35.936C871.868 39.2427 870.503 41.824 869.116 43.68C867.73 45.536 866.311 46.8267 864.86 47.552C863.41 48.2773 861.895 48.64 860.316 48.64C858.61 48.64 857.138 48.32 855.9 47.68C854.663 47.0187 853.714 46.0587 853.052 44.8C852.412 43.5413 852.092 41.9947 852.092 40.16C852.092 37.8773 852.402 35.5733 853.02 33.248C853.639 30.9013 854.503 28.672 855.612 26.56C856.743 24.4267 858.066 22.528 859.58 20.864C861.116 19.1787 862.791 17.8453 864.604 16.864C866.418 15.8827 868.327 15.392 870.332 15.392C871.826 15.392 873.031 15.6373 873.948 16.128C874.866 16.6187 875.538 17.28 875.964 18.112C876.412 18.944 876.636 19.872 876.636 20.896C876.636 21.8133 876.498 22.752 876.22 23.712C875.943 24.672 875.484 25.5893 874.844 26.464C874.14 26.8693 873.138 27.3387 871.836 27.872C870.535 28.4053 869.063 28.96 867.42 29.536C865.799 30.112 864.071 30.688 862.236 31.264C860.423 31.8187 858.62 32.3307 856.828 32.8L857.02 31.616C859.452 30.848 861.532 30.112 863.26 29.408C865.01 28.6827 866.46 27.968 867.612 27.264C868.764 26.56 869.671 25.8453 870.332 25.12C870.994 24.3733 871.463 23.6053 871.74 22.816C872.018 22.0053 872.156 21.1733 872.156 20.32C872.156 19.616 872.039 18.9973 871.804 18.464C871.57 17.9307 871.228 17.5253 870.78 17.248C870.354 16.9493 869.831 16.8 869.212 16.8ZM886.519 20.96C886.625 20.6613 886.636 20.384 886.551 20.128C886.487 19.872 886.284 19.744 885.943 19.744C885.452 19.744 884.812 19.9893 884.023 20.48C883.233 20.9707 882.305 21.856 881.239 23.136C880.193 24.416 878.999 26.2507 877.655 28.64L877.175 28.448C878.561 25.1413 879.884 22.5387 881.143 20.64C882.423 18.7413 883.703 17.3973 884.983 16.608C886.284 15.8187 887.639 15.424 889.047 15.424C889.559 15.424 890.017 15.456 890.423 15.52C890.849 15.5627 891.255 15.6373 891.639 15.744C892.023 15.8293 892.417 15.9573 892.823 16.128L888.407 30.208H888.247C890.252 26.1973 892.012 23.136 893.527 21.024C895.041 18.8907 896.428 17.4187 897.687 16.608C898.967 15.7973 900.204 15.392 901.399 15.392C902.721 15.392 903.692 15.7227 904.311 16.384C904.951 17.024 905.271 17.8347 905.271 18.816C905.271 19.7333 905.057 20.544 904.631 21.248C904.225 21.9307 903.692 22.464 903.031 22.848C902.369 23.232 901.644 23.424 900.855 23.424C900.108 23.424 899.585 23.264 899.287 22.944C898.988 22.6027 898.849 22.08 898.871 21.376C898.935 20.672 898.892 20.2133 898.743 20C898.615 19.7653 898.401 19.648 898.103 19.648C897.463 19.648 896.759 19.9253 895.991 20.48C895.223 21.0347 894.412 21.8347 893.559 22.88C892.705 23.904 891.852 25.1307 890.999 26.56C890.145 27.968 889.324 29.536 888.535 31.264C887.745 32.9707 887.02 34.8053 886.359 36.768L882.615 48H877.559L886.519 20.96ZM904.569 41.024C904.676 42.2613 904.815 43.264 904.985 44.032C905.177 44.7787 905.433 45.376 905.753 45.824C906.116 46.272 906.489 46.5707 906.873 46.72C907.279 46.848 907.727 46.912 908.217 46.912C909.476 46.912 910.553 46.7093 911.449 46.304C912.367 45.8987 913.071 45.3013 913.561 44.512C914.052 43.7227 914.297 42.7627 914.297 41.632C914.297 40.9707 914.169 40.2667 913.913 39.52C913.657 38.7733 913.241 37.9413 912.665 37.024C912.111 36.0853 911.343 34.9973 910.361 33.76C909.401 32.5227 908.644 31.4027 908.089 30.4C907.556 29.3973 907.183 28.4693 906.969 27.616C906.756 26.7627 906.649 25.9307 906.649 25.12C906.649 23.328 907.108 21.7067 908.025 20.256C908.964 18.784 910.255 17.6107 911.897 16.736C913.561 15.84 915.471 15.392 917.625 15.392C919.14 15.392 920.345 15.5733 921.241 15.936C922.137 16.2773 922.777 16.7573 923.161 17.376C923.545 17.9733 923.737 18.6773 923.737 19.488C923.737 20.1067 923.588 20.6507 923.289 21.12C923.012 21.568 922.543 21.9093 921.881 22.144C921.22 22.3787 920.324 22.496 919.193 22.496C919.236 21.216 919.183 20.224 919.033 19.52C918.905 18.7947 918.692 18.2507 918.393 17.888C918.095 17.504 917.743 17.2373 917.337 17.088C916.932 16.9387 916.42 16.864 915.801 16.864C914.159 16.864 912.836 17.28 911.833 18.112C910.852 18.944 910.361 20.16 910.361 21.76C910.361 22.3573 910.468 22.9973 910.681 23.68C910.895 24.3627 911.257 25.1627 911.769 26.08C912.303 26.976 913.049 28.0747 914.009 29.376C914.969 30.6773 915.716 31.84 916.249 32.864C916.804 33.8667 917.188 34.7947 917.401 35.648C917.636 36.48 917.753 37.3013 917.753 38.112C917.753 40.16 917.241 41.9733 916.217 43.552C915.215 45.1307 913.828 46.3787 912.057 47.296C910.308 48.192 908.303 48.64 906.041 48.64C904.484 48.64 903.236 48.4587 902.297 48.096C901.38 47.7547 900.719 47.264 900.313 46.624C899.887 45.984 899.673 45.2587 899.673 44.448C899.673 43.6587 899.844 43.0187 900.185 42.528C900.527 42.016 901.06 41.6427 901.785 41.408C902.511 41.152 903.439 41.024 904.569 41.024ZM952.33 47.072C954.336 47.072 956.032 46.5173 957.418 45.408C958.805 44.2987 959.85 42.6347 960.554 40.416C961.28 38.1973 961.642 35.4453 961.642 32.16C961.642 28.832 961.29 26.048 960.586 23.808C959.882 21.5467 958.848 19.84 957.482 18.688C956.117 17.536 954.442 16.96 952.458 16.96C950.474 16.96 948.789 17.5253 947.402 18.656C946.016 19.7653 944.96 21.4293 944.234 23.648C943.53 25.8453 943.178 28.5867 943.178 31.872C943.178 35.1787 943.53 37.9627 944.234 40.224C944.938 42.4853 945.973 44.192 947.338 45.344C948.704 46.496 950.368 47.072 952.33 47.072ZM952.266 48.64C949.386 48.64 946.784 47.936 944.458 46.528C942.133 45.12 940.277 43.168 938.89 40.672C937.525 38.1547 936.842 35.2747 936.842 32.032C936.842 28.7893 937.546 25.92 938.954 23.424C940.362 20.9067 942.25 18.944 944.618 17.536C946.986 16.1067 949.632 15.392 952.554 15.392C955.477 15.392 958.101 16.1067 960.426 17.536C962.752 18.944 964.586 20.896 965.93 23.392C967.296 25.8667 967.978 28.736 967.978 32C967.978 35.264 967.264 38.1547 965.834 40.672C964.405 43.168 962.496 45.12 960.106 46.528C957.738 47.936 955.125 48.64 952.266 48.64ZM977.103 19.424L975.823 19.936L970.063 18.784V17.76L976.207 15.904L977.775 16.032H991.247L990.735 19.424H977.103ZM981.231 46.048L986.511 47.104V48H970.767V47.104L975.375 46.048V16.128C975.375 13.7813 975.78 11.6693 976.591 9.792C977.401 7.89333 978.521 6.28266 979.951 4.96C981.38 3.616 983.033 2.592 984.911 1.888C986.809 1.184 988.836 0.831997 990.991 0.831997C992.164 0.831997 993.177 0.927998 994.031 1.12C994.884 1.312 995.599 1.58933 996.175 1.952C996.772 2.29333 997.209 2.69866 997.487 3.168C997.764 3.63733 997.903 4.13866 997.903 4.672C997.903 5.44 997.636 6.12266 997.103 6.72C996.591 7.31733 995.929 7.616 995.119 7.616C994.841 7.616 994.425 7.40266 993.871 6.976C993.337 6.528 992.697 6.00533 991.951 5.408C991.225 4.81066 990.415 4.29866 989.519 3.872C988.623 3.424 987.673 3.2 986.671 3.2C985.497 3.2 984.505 3.47733 983.695 4.032C982.884 4.56533 982.265 5.408 981.839 6.56C981.433 7.712 981.231 9.184 981.231 10.976V46.048ZM197.904 124.072C199.909 124.072 201.605 123.517 202.992 122.408C204.379 121.299 205.424 119.635 206.128 117.416C206.853 115.197 207.216 112.445 207.216 109.16C207.216 105.832 206.864 103.048 206.16 100.808C205.456 98.5467 204.421 96.84 203.056 95.688C201.691 94.536 200.016 93.96 198.032 93.96C196.048 93.96 194.363 94.5253 192.976 95.656C191.589 96.7653 190.533 98.4293 189.808 100.648C189.104 102.845 188.752 105.587 188.752 108.872C188.752 112.179 189.104 114.963 189.808 117.224C190.512 119.485 191.547 121.192 192.912 122.344C194.277 123.496 195.941 124.072 197.904 124.072ZM197.84 125.64C194.96 125.64 192.357 124.936 190.032 123.528C187.707 122.12 185.851 120.168 184.464 117.672C183.099 115.155 182.416 112.275 182.416 109.032C182.416 105.789 183.12 102.92 184.528 100.424C185.936 97.9067 187.824 95.944 190.192 94.536C192.56 93.1067 195.205 92.392 198.128 92.392C201.051 92.392 203.675 93.1067 206 94.536C208.325 95.944 210.16 97.896 211.504 100.392C212.869 102.867 213.552 105.736 213.552 109C213.552 112.264 212.837 115.155 211.408 117.672C209.979 120.168 208.069 122.12 205.68 123.528C203.312 124.936 200.699 125.64 197.84 125.64ZM236.34 92.488C237.3 92.488 238.047 92.7547 238.58 93.288C239.135 93.8213 239.412 94.5467 239.412 95.464C239.412 96.5733 239.071 97.4693 238.388 98.152C237.706 98.8347 236.831 99.176 235.764 99.176C235.295 99.176 234.815 99.112 234.324 98.984C233.855 98.856 233.354 98.728 232.82 98.6C232.287 98.472 231.7 98.408 231.06 98.408C230.442 98.408 229.855 98.5147 229.3 98.728C228.746 98.9413 228.191 99.2293 227.636 99.592C227.103 99.9547 226.559 100.392 226.004 100.904L225.908 99.528C227.466 97.9493 228.788 96.6907 229.876 95.752C230.964 94.8133 231.892 94.1093 232.66 93.64C233.428 93.1707 234.1 92.8613 234.676 92.712C235.252 92.5627 235.807 92.488 236.34 92.488ZM226.42 98.28V123.048L231.604 124.104V125H216.116V124.104L220.724 123.048V98.472C220.447 98.28 220.095 98.056 219.668 97.8C219.263 97.544 218.762 97.2453 218.164 96.904C217.588 96.5413 216.906 96.136 216.116 95.688V95.08L226.164 92.104H226.388L226.42 98.28ZM252.037 140.2C249.584 140.2 247.483 140.008 245.733 139.624C244.005 139.24 242.587 138.696 241.477 137.992C240.368 137.288 239.547 136.477 239.013 135.56C238.501 134.643 238.245 133.661 238.245 132.616C238.245 131.805 238.448 131.016 238.853 130.248C239.28 129.48 239.963 128.744 240.901 128.04C241.861 127.357 243.109 126.707 244.645 126.088C246.203 125.491 248.112 124.957 250.373 124.488H252.453V125.064C250.043 125.427 248.144 125.949 246.757 126.632C245.392 127.336 244.411 128.136 243.813 129.032C243.237 129.928 242.949 130.899 242.949 131.944C242.949 133.352 243.355 134.557 244.165 135.56C244.997 136.563 246.16 137.331 247.653 137.864C249.168 138.397 250.992 138.664 253.125 138.664C255.557 138.664 257.584 138.365 259.205 137.768C260.848 137.171 262.075 136.36 262.885 135.336C263.717 134.312 264.133 133.171 264.133 131.912C264.133 130.973 263.909 130.173 263.461 129.512C263.013 128.851 262.288 128.296 261.285 127.848C260.304 127.4 258.992 127.037 257.349 126.76C255.728 126.483 253.733 126.259 251.365 126.088C249.403 125.917 247.781 125.629 246.501 125.224C245.221 124.84 244.219 124.36 243.493 123.784C242.789 123.187 242.288 122.525 241.989 121.8C241.712 121.075 241.573 120.264 241.573 119.368C241.573 117.789 242.299 116.445 243.749 115.336C245.2 114.227 247.163 113.352 249.637 112.712L250.117 113.448C248.645 113.555 247.611 113.939 247.013 114.6C246.437 115.261 246.149 115.944 246.149 116.648C246.149 117.267 246.267 117.8 246.501 118.248C246.736 118.675 247.163 119.048 247.781 119.368C248.421 119.667 249.339 119.933 250.533 120.168C251.728 120.381 253.285 120.573 255.205 120.744C257.531 120.957 259.536 121.288 261.221 121.736C262.928 122.163 264.336 122.728 265.445 123.432C266.555 124.115 267.376 124.947 267.909 125.928C268.464 126.909 268.741 128.04 268.741 129.32C268.741 131.219 268.123 132.989 266.885 134.632C265.648 136.275 263.792 137.608 261.317 138.632C258.843 139.677 255.749 140.2 252.037 140.2ZM252.421 113.928C250.16 113.928 248.112 113.469 246.277 112.552C244.464 111.613 243.024 110.333 241.957 108.712C240.891 107.091 240.357 105.256 240.357 103.208C240.357 101.117 240.891 99.2613 241.957 97.64C243.024 95.9973 244.464 94.7173 246.277 93.8C248.112 92.8613 250.16 92.392 252.421 92.392C254.192 92.392 255.813 92.6693 257.285 93.224C258.757 93.7573 260.037 94.5147 261.125 95.496C262.235 96.456 263.088 97.5867 263.685 98.888C264.304 100.189 264.613 101.619 264.613 103.176C264.613 105.245 264.08 107.091 263.013 108.712C261.968 110.333 260.528 111.613 258.693 112.552C256.859 113.469 254.768 113.928 252.421 113.928ZM253.349 112.68C255.376 112.467 256.848 111.411 257.765 109.512C258.704 107.592 259.045 105.277 258.789 102.568C258.533 99.7307 257.765 97.5013 256.485 95.88C255.205 94.2587 253.541 93.512 251.493 93.64C249.616 93.8107 248.197 94.856 247.237 96.776C246.299 98.696 245.947 101.011 246.181 103.72C246.416 106.472 247.173 108.691 248.453 110.376C249.755 112.061 251.387 112.829 253.349 112.68ZM256.485 93.8L255.237 92.68C257.84 92.8933 259.963 92.9893 261.605 92.968C263.248 92.9253 264.549 92.8293 265.509 92.68C266.469 92.5093 267.205 92.3493 267.717 92.2C268.251 92.0507 268.688 91.976 269.029 91.976C269.413 91.976 269.733 92.1253 269.989 92.424C270.245 92.7013 270.373 93.16 270.373 93.8C270.373 95.0373 270.043 95.9973 269.381 96.68C268.72 97.3413 268.016 97.672 267.269 97.672C266.779 97.672 266.277 97.5013 265.765 97.16C265.253 96.8187 264.624 96.4133 263.877 95.944C263.131 95.4533 262.171 95.0053 260.997 94.6C259.824 94.1947 258.32 93.928 256.485 93.8ZM290.132 104.264L290.484 105.736C287.562 106.632 285.183 107.485 283.348 108.296C281.535 109.107 280.138 109.928 279.156 110.76C278.196 111.571 277.535 112.424 277.172 113.32C276.81 114.216 276.628 115.208 276.628 116.296C276.628 118.088 277.14 119.443 278.164 120.36C279.21 121.256 280.479 121.704 281.972 121.704C283.167 121.704 284.212 121.459 285.108 120.968C286.026 120.477 286.74 119.773 287.252 118.856C287.786 117.939 288.052 116.84 288.052 115.56V101.352C288.052 99.24 287.53 97.64 286.484 96.552C285.46 95.4427 283.882 94.888 281.748 94.888C280.746 94.888 279.732 94.9733 278.708 95.144C277.706 95.3147 276.884 95.56 276.244 95.88L277.94 94.568C277.876 95.3147 277.77 96.0933 277.62 96.904C277.492 97.7147 277.332 98.4507 277.14 99.112C276.948 99.752 276.714 100.232 276.436 100.552C276.159 100.915 275.732 101.192 275.156 101.384C274.602 101.555 274.036 101.64 273.46 101.64C272.714 101.64 272.116 101.491 271.668 101.192C271.22 100.872 270.996 100.403 270.996 99.784C270.996 98.9093 271.402 98.0453 272.212 97.192C273.044 96.3173 274.111 95.528 275.412 94.824C276.735 94.0987 278.164 93.5227 279.7 93.096C281.236 92.6693 282.708 92.456 284.116 92.456C286.442 92.456 288.308 92.7973 289.716 93.48C291.124 94.1627 292.148 95.1333 292.788 96.392C293.428 97.6293 293.748 99.0907 293.748 100.776V119.112C293.748 119.795 293.855 120.349 294.068 120.776C294.303 121.203 294.612 121.523 294.996 121.736C295.402 121.928 295.871 122.024 296.404 122.024C297.087 122.024 297.77 121.917 298.452 121.704C299.156 121.469 299.871 121.096 300.596 120.584V121.544C299.124 123.272 297.802 124.392 296.628 124.904C295.455 125.395 294.26 125.64 293.044 125.64C291.807 125.64 290.826 125.363 290.1 124.808C289.375 124.253 288.852 123.464 288.532 122.44C288.212 121.395 288.031 120.147 287.988 118.696L288.084 118.664C287.743 120.008 287.167 121.203 286.356 122.248C285.546 123.293 284.575 124.125 283.444 124.744C282.314 125.341 281.066 125.64 279.7 125.64C277.14 125.64 274.996 124.957 273.268 123.592C271.562 122.205 270.708 120.2 270.708 117.576C270.708 116.211 270.943 114.995 271.412 113.928C271.903 112.861 272.82 111.848 274.164 110.888C275.53 109.928 277.492 108.925 280.052 107.88C282.612 106.813 285.972 105.608 290.132 104.264ZM310.393 98.28V123.048L315.033 124.104V125H300.089V124.104L304.697 123.048V98.472C304.356 98.2373 303.865 97.928 303.225 97.544C302.585 97.16 301.54 96.5413 300.089 95.688V95.08L310.041 92.104H310.265L310.393 98.28ZM320.441 124.104L325.081 123.048V103.272C325.081 101.885 324.836 100.723 324.345 99.784C323.854 98.8453 323.097 98.1413 322.073 97.672C321.049 97.1813 319.748 96.936 318.169 96.936C316.484 96.936 314.884 97.1813 313.369 97.672C311.854 98.1413 310.628 98.6533 309.689 99.208L309.177 98.472C310.756 97.2347 312.142 96.2213 313.337 95.432C314.532 94.6427 315.609 94.0347 316.569 93.608C317.529 93.16 318.446 92.8507 319.321 92.68C320.196 92.488 321.134 92.392 322.137 92.392C325.188 92.392 327.396 93.2347 328.761 94.92C330.126 96.584 330.809 99.2293 330.809 102.856V123.048L335.417 124.104V125H320.441V124.104ZM343.568 86.632C342.246 86.632 341.2 86.1947 340.432 85.32C339.664 84.424 339.28 83.4107 339.28 82.28C339.28 81.1707 339.664 80.2107 340.432 79.4C341.2 78.5893 342.246 78.184 343.568 78.184C344.87 78.184 345.883 78.5893 346.608 79.4C347.355 80.2107 347.728 81.1707 347.728 82.28C347.728 83.4107 347.355 84.424 346.608 85.32C345.883 86.1947 344.87 86.632 343.568 86.632ZM346.928 92.104L346.896 98.184V123.048L351.536 124.104V125H336.56V124.104L341.2 123.048V98.408C340.966 98.2373 340.603 98.0027 340.112 97.704C339.643 97.4053 339.099 97.0747 338.48 96.712C337.883 96.328 337.254 95.9547 336.592 95.592V94.952L346.736 92.104H346.928ZM370.249 92.392C372.255 92.392 373.887 92.6053 375.145 93.032C376.425 93.4587 377.364 94.0133 377.961 94.696C378.559 95.3787 378.857 96.1147 378.857 96.904C378.857 97.5653 378.719 98.1413 378.441 98.632C378.185 99.1013 377.823 99.464 377.353 99.72C376.884 99.976 376.308 100.104 375.625 100.104C375.391 100.104 375.081 99.912 374.697 99.528C374.335 99.1227 373.897 98.632 373.385 98.056C372.873 97.48 372.297 96.904 371.657 96.328C371.039 95.7307 370.377 95.24 369.673 94.856C368.969 94.4507 368.223 94.248 367.433 94.248C365.94 94.248 364.596 94.6853 363.401 95.56C362.228 96.4347 361.3 97.768 360.617 99.56C359.956 101.352 359.625 103.656 359.625 106.472C359.625 109.885 360.052 112.68 360.905 114.856C361.759 117.032 363.007 118.632 364.649 119.656C366.292 120.659 368.319 121.16 370.729 121.16C372.351 121.16 373.919 120.829 375.433 120.168C376.948 119.485 378.228 118.451 379.273 117.064L379.785 117.512C378.569 119.496 377.332 121.085 376.073 122.28C374.815 123.475 373.492 124.339 372.105 124.872C370.74 125.384 369.247 125.64 367.625 125.64C365.001 125.64 362.633 125.021 360.521 123.784C358.431 122.547 356.777 120.744 355.561 118.376C354.345 115.987 353.737 113.075 353.737 109.64C353.737 107.144 354.143 104.851 354.953 102.76C355.764 100.669 356.905 98.856 358.377 97.32C359.849 95.7627 361.588 94.5573 363.593 93.704C365.62 92.8293 367.839 92.392 370.249 92.392ZM401.762 104.264L402.114 105.736C399.192 106.632 396.813 107.485 394.978 108.296C393.165 109.107 391.768 109.928 390.786 110.76C389.826 111.571 389.165 112.424 388.802 113.32C388.44 114.216 388.258 115.208 388.258 116.296C388.258 118.088 388.77 119.443 389.794 120.36C390.84 121.256 392.109 121.704 393.602 121.704C394.797 121.704 395.842 121.459 396.738 120.968C397.656 120.477 398.37 119.773 398.882 118.856C399.416 117.939 399.682 116.84 399.682 115.56V101.352C399.682 99.24 399.16 97.64 398.114 96.552C397.09 95.4427 395.512 94.888 393.378 94.888C392.376 94.888 391.362 94.9733 390.338 95.144C389.336 95.3147 388.514 95.56 387.874 95.88L389.57 94.568C389.506 95.3147 389.4 96.0933 389.25 96.904C389.122 97.7147 388.962 98.4507 388.77 99.112C388.578 99.752 388.344 100.232 388.066 100.552C387.789 100.915 387.362 101.192 386.786 101.384C386.232 101.555 385.666 101.64 385.09 101.64C384.344 101.64 383.746 101.491 383.298 101.192C382.85 100.872 382.626 100.403 382.626 99.784C382.626 98.9093 383.032 98.0453 383.842 97.192C384.674 96.3173 385.741 95.528 387.042 94.824C388.365 94.0987 389.794 93.5227 391.33 93.096C392.866 92.6693 394.338 92.456 395.746 92.456C398.072 92.456 399.938 92.7973 401.346 93.48C402.754 94.1627 403.778 95.1333 404.418 96.392C405.058 97.6293 405.378 99.0907 405.378 100.776V119.112C405.378 119.795 405.485 120.349 405.698 120.776C405.933 121.203 406.242 121.523 406.626 121.736C407.032 121.928 407.501 122.024 408.034 122.024C408.717 122.024 409.4 121.917 410.082 121.704C410.786 121.469 411.501 121.096 412.226 120.584V121.544C410.754 123.272 409.432 124.392 408.258 124.904C407.085 125.395 405.89 125.64 404.674 125.64C403.437 125.64 402.456 125.363 401.73 124.808C401.005 124.253 400.482 123.464 400.162 122.44C399.842 121.395 399.661 120.147 399.618 118.696L399.714 118.664C399.373 120.008 398.797 121.203 397.986 122.248C397.176 123.293 396.205 124.125 395.074 124.744C393.944 125.341 392.696 125.64 391.33 125.64C388.77 125.64 386.626 124.957 384.898 123.592C383.192 122.205 382.338 120.2 382.338 117.576C382.338 116.211 382.573 114.995 383.042 113.928C383.533 112.861 384.45 111.848 385.794 110.888C387.16 109.928 389.122 108.925 391.682 107.88C394.242 106.813 397.602 105.608 401.762 104.264ZM421.639 123.048L426.279 124.104V125H411.303V124.104L415.943 123.048V83.368C415.666 83.2187 415.271 83.0267 414.759 82.792C414.268 82.536 413.682 82.2587 412.999 81.96C412.338 81.64 411.591 81.288 410.759 80.904V80.328L421.479 77.832H421.703L421.639 83.336V123.048ZM437.484 123.048L442.124 124.104V125H427.148V124.104L431.788 123.048V83.368C431.511 83.2187 431.116 83.0267 430.604 82.792C430.113 82.536 429.527 82.2587 428.844 81.96C428.183 81.64 427.436 81.288 426.604 80.904V80.328L437.324 77.832H437.548L437.484 83.336V123.048ZM462.813 119.016L459.645 125.896L445.277 95.4L441.213 94.152V93.032H456.125V94.152L451.549 95.336L462.813 119.016ZM449.053 140.2C447.73 140.2 446.632 139.859 445.757 139.176C444.882 138.493 444.445 137.523 444.445 136.264C444.445 135.645 444.552 135.133 444.765 134.728C444.978 134.344 445.256 134.045 445.597 133.832C445.938 133.64 446.269 133.544 446.589 133.544C446.909 133.544 447.282 133.661 447.709 133.896C448.157 134.152 448.68 134.397 449.277 134.632C449.874 134.888 450.557 135.016 451.325 135.016C452.221 135.016 453 134.877 453.661 134.6C454.344 134.344 454.973 133.832 455.549 133.064C456.146 132.296 456.754 131.187 457.373 129.736L460.157 123.016L461.533 119.56L469.501 95.144L464.829 94.152V93.032H476.221V94.152L472.221 95.112L459.101 130.28C458.141 132.797 457.149 134.771 456.125 136.2C455.122 137.651 454.045 138.675 452.893 139.272C451.741 139.891 450.461 140.2 449.053 140.2ZM500.988 140.2C498.534 140.2 496.433 140.008 494.684 139.624C492.956 139.24 491.537 138.696 490.428 137.992C489.318 137.288 488.497 136.477 487.964 135.56C487.452 134.643 487.196 133.661 487.196 132.616C487.196 131.805 487.398 131.016 487.804 130.248C488.23 129.48 488.913 128.744 489.852 128.04C490.812 127.357 492.06 126.707 493.596 126.088C495.153 125.491 497.062 124.957 499.324 124.488H501.404V125.064C498.993 125.427 497.094 125.949 495.708 126.632C494.342 127.336 493.361 128.136 492.764 129.032C492.188 129.928 491.9 130.899 491.9 131.944C491.9 133.352 492.305 134.557 493.116 135.56C493.948 136.563 495.11 137.331 496.604 137.864C498.118 138.397 499.942 138.664 502.076 138.664C504.508 138.664 506.534 138.365 508.156 137.768C509.798 137.171 511.025 136.36 511.836 135.336C512.668 134.312 513.084 133.171 513.084 131.912C513.084 130.973 512.86 130.173 512.412 129.512C511.964 128.851 511.238 128.296 510.236 127.848C509.254 127.4 507.942 127.037 506.3 126.76C504.678 126.483 502.684 126.259 500.316 126.088C498.353 125.917 496.732 125.629 495.452 125.224C494.172 124.84 493.169 124.36 492.444 123.784C491.74 123.187 491.238 122.525 490.94 121.8C490.662 121.075 490.524 120.264 490.524 119.368C490.524 117.789 491.249 116.445 492.7 115.336C494.15 114.227 496.113 113.352 498.588 112.712L499.068 113.448C497.596 113.555 496.561 113.939 495.964 114.6C495.388 115.261 495.1 115.944 495.1 116.648C495.1 117.267 495.217 117.8 495.452 118.248C495.686 118.675 496.113 119.048 496.732 119.368C497.372 119.667 498.289 119.933 499.484 120.168C500.678 120.381 502.236 120.573 504.156 120.744C506.481 120.957 508.486 121.288 510.172 121.736C511.878 122.163 513.286 122.728 514.396 123.432C515.505 124.115 516.326 124.947 516.86 125.928C517.414 126.909 517.692 128.04 517.692 129.32C517.692 131.219 517.073 132.989 515.836 134.632C514.598 136.275 512.742 137.608 510.268 138.632C507.793 139.677 504.7 140.2 500.988 140.2ZM501.372 113.928C499.11 113.928 497.062 113.469 495.228 112.552C493.414 111.613 491.974 110.333 490.908 108.712C489.841 107.091 489.308 105.256 489.308 103.208C489.308 101.117 489.841 99.2613 490.908 97.64C491.974 95.9973 493.414 94.7173 495.228 93.8C497.062 92.8613 499.11 92.392 501.372 92.392C503.142 92.392 504.764 92.6693 506.236 93.224C507.708 93.7573 508.988 94.5147 510.076 95.496C511.185 96.456 512.038 97.5867 512.636 98.888C513.254 100.189 513.564 101.619 513.564 103.176C513.564 105.245 513.03 107.091 511.964 108.712C510.918 110.333 509.478 111.613 507.644 112.552C505.809 113.469 503.718 113.928 501.372 113.928ZM502.3 112.68C504.326 112.467 505.798 111.411 506.716 109.512C507.654 107.592 507.996 105.277 507.74 102.568C507.484 99.7307 506.716 97.5013 505.436 95.88C504.156 94.2587 502.492 93.512 500.444 93.64C498.566 93.8107 497.148 94.856 496.188 96.776C495.249 98.696 494.897 101.011 495.132 103.72C495.366 106.472 496.124 108.691 497.404 110.376C498.705 112.061 500.337 112.829 502.3 112.68ZM505.436 93.8L504.188 92.68C506.79 92.8933 508.913 92.9893 510.556 92.968C512.198 92.9253 513.5 92.8293 514.46 92.68C515.42 92.5093 516.156 92.3493 516.668 92.2C517.201 92.0507 517.638 91.976 517.98 91.976C518.364 91.976 518.684 92.1253 518.94 92.424C519.196 92.7013 519.324 93.16 519.324 93.8C519.324 95.0373 518.993 95.9973 518.332 96.68C517.67 97.3413 516.966 97.672 516.22 97.672C515.729 97.672 515.228 97.5013 514.716 97.16C514.204 96.8187 513.574 96.4133 512.828 95.944C512.081 95.4533 511.121 95.0053 509.948 94.6C508.774 94.1947 507.27 93.928 505.436 93.8ZM539.605 92.488C540.565 92.488 541.312 92.7547 541.845 93.288C542.4 93.8213 542.677 94.5467 542.677 95.464C542.677 96.5733 542.336 97.4693 541.653 98.152C540.971 98.8347 540.096 99.176 539.029 99.176C538.56 99.176 538.08 99.112 537.589 98.984C537.12 98.856 536.619 98.728 536.085 98.6C535.552 98.472 534.965 98.408 534.325 98.408C533.707 98.408 533.12 98.5147 532.565 98.728C532.011 98.9413 531.456 99.2293 530.901 99.592C530.368 99.9547 529.824 100.392 529.269 100.904L529.173 99.528C530.731 97.9493 532.053 96.6907 533.141 95.752C534.229 94.8133 535.157 94.1093 535.925 93.64C536.693 93.1707 537.365 92.8613 537.941 92.712C538.517 92.5627 539.072 92.488 539.605 92.488ZM529.685 98.28V123.048L534.869 124.104V125H519.381V124.104L523.989 123.048V98.472C523.712 98.28 523.36 98.056 522.933 97.8C522.528 97.544 522.027 97.2453 521.429 96.904C520.853 96.5413 520.171 96.136 519.381 95.688V95.08L529.429 92.104H529.653L529.685 98.28ZM558.484 124.072C560.489 124.072 562.185 123.517 563.572 122.408C564.959 121.299 566.004 119.635 566.708 117.416C567.433 115.197 567.796 112.445 567.796 109.16C567.796 105.832 567.444 103.048 566.74 100.808C566.036 98.5467 565.001 96.84 563.636 95.688C562.271 94.536 560.596 93.96 558.612 93.96C556.628 93.96 554.943 94.5253 553.556 95.656C552.169 96.7653 551.113 98.4293 550.388 100.648C549.684 102.845 549.332 105.587 549.332 108.872C549.332 112.179 549.684 114.963 550.388 117.224C551.092 119.485 552.127 121.192 553.492 122.344C554.857 123.496 556.521 124.072 558.484 124.072ZM558.42 125.64C555.54 125.64 552.937 124.936 550.612 123.528C548.287 122.12 546.431 120.168 545.044 117.672C543.679 115.155 542.996 112.275 542.996 109.032C542.996 105.789 543.7 102.92 545.108 100.424C546.516 97.9067 548.404 95.944 550.772 94.536C553.14 93.1067 555.785 92.392 558.708 92.392C561.631 92.392 564.255 93.1067 566.58 94.536C568.905 95.944 570.74 97.896 572.084 100.392C573.449 102.867 574.132 105.736 574.132 109C574.132 112.264 573.417 115.155 571.988 117.672C570.559 120.168 568.649 122.12 566.26 123.528C563.892 124.936 561.279 125.64 558.42 125.64ZM616.699 95.144L612.027 94.152V93.032H623.419V94.152L619.419 95.112L610.331 125.8H609.371L597.243 100.008H599.035L588.347 125.8H587.387L577.755 95.4L573.659 94.152V93.032H588.443V94.152L583.867 95.336L590.875 118.312L589.435 119.336L599.259 92.136H600.283L612.219 117.896L610.715 119.336L616.699 95.144ZM634.095 98.28V123.048L638.735 124.104V125H623.791V124.104L628.399 123.048V98.472C628.058 98.2373 627.567 97.928 626.927 97.544C626.287 97.16 625.242 96.5413 623.791 95.688V95.08L633.743 92.104H633.967L634.095 98.28ZM644.143 124.104L648.783 123.048V103.272C648.783 101.885 648.538 100.723 648.047 99.784C647.557 98.8453 646.799 98.1413 645.775 97.672C644.751 97.1813 643.45 96.936 641.871 96.936C640.186 96.936 638.586 97.1813 637.071 97.672C635.557 98.1413 634.33 98.6533 633.391 99.208L632.879 98.472C634.458 97.2347 635.845 96.2213 637.039 95.432C638.234 94.6427 639.311 94.0347 640.271 93.608C641.231 93.16 642.149 92.8507 643.023 92.68C643.898 92.488 644.837 92.392 645.839 92.392C648.89 92.392 651.098 93.2347 652.463 94.92C653.829 96.584 654.511 99.2293 654.511 102.856V123.048L659.119 124.104V125H644.143V124.104ZM680.229 96.424L678.949 96.936L673.189 95.784V94.76L679.333 92.904L680.901 93.032H694.373L693.861 96.424H680.229ZM684.357 123.048L689.637 124.104V125H673.893V124.104L678.501 123.048V93.128C678.501 90.7813 678.906 88.6693 679.717 86.792C680.528 84.8933 681.648 83.2827 683.077 81.96C684.506 80.616 686.16 79.592 688.037 78.888C689.936 78.184 691.962 77.832 694.117 77.832C695.29 77.832 696.304 77.928 697.157 78.12C698.01 78.312 698.725 78.5893 699.301 78.952C699.898 79.2933 700.336 79.6987 700.613 80.168C700.89 80.6373 701.029 81.1387 701.029 81.672C701.029 82.44 700.762 83.1227 700.229 83.72C699.717 84.3173 699.056 84.616 698.245 84.616C697.968 84.616 697.552 84.4027 696.997 83.976C696.464 83.528 695.824 83.0053 695.077 82.408C694.352 81.8107 693.541 81.2987 692.645 80.872C691.749 80.424 690.8 80.2 689.797 80.2C688.624 80.2 687.632 80.4773 686.821 81.032C686.01 81.5653 685.392 82.408 684.965 83.56C684.56 84.712 684.357 86.184 684.357 87.976V123.048ZM709.709 124.072C711.714 124.072 713.41 123.517 714.797 122.408C716.184 121.299 717.229 119.635 717.933 117.416C718.658 115.197 719.021 112.445 719.021 109.16C719.021 105.832 718.669 103.048 717.965 100.808C717.261 98.5467 716.226 96.84 714.861 95.688C713.496 94.536 711.821 93.96 709.837 93.96C707.853 93.96 706.168 94.5253 704.781 95.656C703.394 96.7653 702.338 98.4293 701.613 100.648C700.909 102.845 700.557 105.587 700.557 108.872C700.557 112.179 700.909 114.963 701.613 117.224C702.317 119.485 703.352 121.192 704.717 122.344C706.082 123.496 707.746 124.072 709.709 124.072ZM709.645 125.64C706.765 125.64 704.162 124.936 701.837 123.528C699.512 122.12 697.656 120.168 696.269 117.672C694.904 115.155 694.221 112.275 694.221 109.032C694.221 105.789 694.925 102.92 696.333 100.424C697.741 97.9067 699.629 95.944 701.997 94.536C704.365 93.1067 707.01 92.392 709.933 92.392C712.856 92.392 715.48 93.1067 717.805 94.536C720.13 95.944 721.965 97.896 723.309 100.392C724.674 102.867 725.357 105.736 725.357 109C725.357 112.264 724.642 115.155 723.213 117.672C721.784 120.168 719.874 122.12 717.485 123.528C715.117 124.936 712.504 125.64 709.645 125.64ZM744.241 124.072C746.247 124.072 747.943 123.517 749.329 122.408C750.716 121.299 751.761 119.635 752.465 117.416C753.191 115.197 753.553 112.445 753.553 109.16C753.553 105.832 753.201 103.048 752.497 100.808C751.793 98.5467 750.759 96.84 749.393 95.688C748.028 94.536 746.353 93.96 744.369 93.96C742.385 93.96 740.7 94.5253 739.313 95.656C737.927 96.7653 736.871 98.4293 736.145 100.648C735.441 102.845 735.089 105.587 735.089 108.872C735.089 112.179 735.441 114.963 736.145 117.224C736.849 119.485 737.884 121.192 739.249 122.344C740.615 123.496 742.279 124.072 744.241 124.072ZM744.177 125.64C741.297 125.64 738.695 124.936 736.369 123.528C734.044 122.12 732.188 120.168 730.801 117.672C729.436 115.155 728.753 112.275 728.753 109.032C728.753 105.789 729.457 102.92 730.865 100.424C732.273 97.9067 734.161 95.944 736.529 94.536C738.897 93.1067 741.543 92.392 744.465 92.392C747.388 92.392 750.012 93.1067 752.337 94.536C754.663 95.944 756.497 97.896 757.841 100.392C759.207 102.867 759.889 105.736 759.889 109C759.889 112.264 759.175 115.155 757.745 117.672C756.316 120.168 754.407 122.12 752.017 123.528C749.649 124.936 747.036 125.64 744.177 125.64ZM787.126 101.16C787.126 99.112 786.379 97.4267 784.886 96.104C783.393 94.7813 781.505 94.12 779.222 94.12C777.153 94.12 775.393 94.664 773.942 95.752C772.491 96.84 771.382 98.4293 770.614 100.52C769.867 102.611 769.494 105.171 769.494 108.2C769.494 111.144 769.867 113.597 770.614 115.56C771.361 117.501 772.47 118.963 773.942 119.944C775.414 120.904 777.249 121.384 779.446 121.384C781.238 121.384 782.902 121.085 784.438 120.488C785.974 119.891 787.457 118.856 788.886 117.384L789.302 118.28C787.915 119.709 786.657 120.904 785.526 121.864C784.395 122.803 783.329 123.549 782.326 124.104C781.345 124.659 780.395 125.053 779.478 125.288C778.582 125.523 777.707 125.64 776.854 125.64C774.081 125.64 771.681 125.011 769.654 123.752C767.649 122.493 766.091 120.733 764.982 118.472C763.894 116.211 763.35 113.587 763.35 110.6C763.35 107.72 763.766 105.16 764.598 102.92C765.451 100.659 766.646 98.7493 768.182 97.192C769.718 95.6347 771.531 94.4507 773.622 93.64C775.713 92.808 777.995 92.392 780.47 92.392C781.686 92.392 782.913 92.488 784.15 92.68C785.387 92.8507 786.603 93.128 787.798 93.512C788.993 93.896 790.123 94.3867 791.19 94.984L787.126 96.008V83.24C786.87 83.112 786.454 82.9093 785.878 82.632C785.323 82.3547 784.705 82.056 784.022 81.736C783.339 81.416 782.689 81.128 782.07 80.872V80.296L793.078 77.832H793.27L792.822 82.824V121.576C793.014 121.683 793.313 121.832 793.718 122.024C794.145 122.195 794.603 122.376 795.094 122.568C795.585 122.76 796.065 122.952 796.534 123.144C797.025 123.336 797.441 123.496 797.782 123.624V124.36L787.414 125.8H787.19L787.126 121.256V101.16ZM804.5 116.872C805.801 116.872 806.857 117.299 807.668 118.152C808.5 118.984 808.916 120.008 808.916 121.224C808.916 122.44 808.5 123.475 807.668 124.328C806.836 125.16 805.78 125.576 804.5 125.576C803.22 125.576 802.164 125.16 801.332 124.328C800.5 123.475 800.084 122.44 800.084 121.224C800.084 120.008 800.5 118.984 801.332 118.152C802.185 117.299 803.241 116.872 804.5 116.872Z" fill="black"/>
</svg>
